<?xml version="1.0" encoding="utf-8"?>
<svg viewBox="0 0 150 150" xmlns="http://www.w3.org/2000/svg">
  <g transform="matrix(1, 0, 0, 1, 205.066101, -279.503296)">
    <path d="M -162.844 366.045 C -162.844 361.712 -162.027 357.445 -160.394 353.245 C -158.761 349.045 -156.377 345.278 -153.244 341.945 C -150.111 338.612 -146.311 335.912 -141.844 333.845 C -137.377 331.778 -132.277 330.745 -126.544 330.745 C -119.677 330.745 -113.727 332.162 -108.694 334.995 C -103.661 337.828 -99.911 341.578 -97.444 346.245 L -112.344 356.845 C -113.011 355.112 -113.894 353.678 -114.994 352.545 C -116.094 351.412 -117.311 350.512 -118.644 349.845 C -119.977 349.178 -121.361 348.712 -122.794 348.445 C -124.227 348.178 -125.611 348.045 -126.944 348.045 C -129.744 348.045 -132.161 348.595 -134.194 349.695 C -136.227 350.795 -137.894 352.228 -139.194 353.995 C -140.494 355.762 -141.461 357.762 -142.094 359.995 C -142.727 362.228 -143.044 364.445 -143.044 366.645 C -143.044 369.112 -142.677 371.478 -141.944 373.745 C -141.211 376.012 -140.144 378.012 -138.744 379.745 C -137.344 381.478 -135.627 382.862 -133.594 383.895 C -131.561 384.928 -129.277 385.445 -126.744 385.445 C -125.411 385.445 -124.044 385.295 -122.644 384.995 C -121.244 384.695 -119.894 384.195 -118.594 383.495 C -117.294 382.795 -116.127 381.895 -115.094 380.795 C -114.061 379.695 -113.244 378.345 -112.644 376.745 L -96.744 386.245 C -97.811 388.845 -99.427 391.178 -101.594 393.245 C -103.761 395.312 -106.227 397.045 -108.994 398.445 C -111.761 399.845 -114.727 400.912 -117.894 401.645 C -121.061 402.378 -124.144 402.745 -127.144 402.745 C -132.411 402.745 -137.227 401.695 -141.594 399.595 C -145.961 397.495 -149.727 394.712 -152.894 391.245 C -156.061 387.778 -158.511 383.845 -160.244 379.445 C -161.977 375.045 -162.844 370.578 -162.844 366.045 Z" transform="matrix(1, 0, 0, 1, 0, 0)" style="white-space: pre; fill: rgb(44, 55, 72);"/>
    <path d="M -139.863 282.12 L -139.894 282.151 L -116.456 282.151 L -116.488 282.12 L -104.162 282.12 L -109.456 292.339 L -109.282 320.303 L -57.675 427.37 L -198.645 427.37 L -147.366 320.053 L -146.895 292.339 L -152.19 282.12 Z M -133.117 291.056 C -137.201 291.056 -140.512 294.367 -140.512 298.451 C -140.512 302.534 -137.201 305.845 -133.117 305.845 C -129.033 305.845 -125.722 302.535 -125.722 298.451 C -125.722 294.367 -129.033 291.056 -133.117 291.056 Z M -121.1 308.172 C -123.653 308.172 -125.722 310.241 -125.722 312.793 C -125.722 315.345 -123.653 317.415 -121.1 317.415 C -118.548 317.415 -116.479 315.345 -116.479 312.793 C -116.479 310.241 -118.548 308.172 -121.1 308.172 Z M -145.098 336.102 L -185.731 419.827 L -70.581 419.827 L -110.933 336.001 Z" style="fill: rgb(44, 55, 72);"/>
  </g>
</svg>